<svg width="109" height="15" viewBox="0 0 109 15" fill="none" xmlns="http://www.w3.org/2000/svg">
<path d="M15.6834 7.09501V7.05645C15.6834 3.0156 18.9189 0 23.0686 0C26.1258 0 28.1908 1.4494 29.3613 3.51802L25.5295 5.70232C25.0136 4.73605 24.2787 4.05899 23.008 4.05899C21.4392 4.05899 20.4073 5.3927 20.4073 7.01675V7.05531C20.4073 8.81432 21.4788 10.0516 23.008 10.0516C24.3183 10.0516 25.0532 9.35529 25.6285 8.35047L29.4603 10.4576C28.2886 12.4684 26.3436 14.1118 22.8892 14.1118C19.0377 14.1118 15.6823 11.289 15.6823 7.09387L15.6834 7.09501Z" fill="#6BBF00"/>
<path d="M30.356 0.290283H35.1998L38.1779 5.04562L41.1559 0.290283H45.9998V13.8225H41.3737V7.11424L38.1779 11.9274H38.0987L34.9028 7.11424V13.8225H30.3571V0.290283H30.356Z" fill="#6BBF00"/>
<path d="M47.5884 0.290283H59.539V4.00223H52.1539V5.37451H59.539V8.64189H52.1539V10.1117H59.539V13.8236H47.5884V0.290283Z" fill="#6BBF00"/>
<path d="M59.5391 0.290283H65.2564C66.845 0.290283 68.1157 0.715575 68.889 1.46976C69.4644 2.03001 69.7823 2.76492 69.7823 3.65406V3.69262C69.7823 5.43235 68.6304 6.51542 67.2212 6.90216C69.0474 7.23105 70.537 8.37197 70.537 10.2081V10.2467C70.537 12.4888 68.6514 13.8225 65.5546 13.8225H59.5391V0.290283ZM65.395 6.68894C67.46 6.68894 69.108 5.7034 69.108 3.75046V3.7119C69.108 2.01073 67.6789 0.889094 65.2366 0.889094H60.2146V6.68894H65.3962H65.395ZM65.5732 13.2226C68.2531 13.2226 69.8417 12.1009 69.8417 10.2648V10.2262C69.8417 8.33227 68.1145 7.28776 65.6524 7.28776H60.2122V13.2226H65.572H65.5732Z" fill="#838696"/>
<path d="M85.1257 0.290283H85.7406L95.9047 12.7009V0.290283H96.5592V13.8225H96.0235L85.7791 1.31439V13.8225H85.1245V0.290283H85.1257Z" fill="#838696"/>
<path d="M97.8438 0.290283H98.5181V9.3371L107.83 0.290283H108.763L102.707 6.10941L109 13.8225H108.127L102.231 6.55399L98.5181 10.131V13.8236H97.8438V0.290283Z" fill="#838696"/>
<path d="M10.4622 0.192749H5.85594L0 13.8225H4.96264L5.22702 13.1522L8.12006 5.50947L11.0387 13.2328L11.2763 13.8225H16.3181L10.4622 0.192749Z" fill="#6BBF00"/>
<path d="M83.2923 13.8225H84.0272L77.4352 0.192749H76.8004L70.2096 13.8225H70.9037L72.1627 11.2186L72.1639 11.2152L72.8103 9.87807H72.8126L73.4544 8.55796L77.0986 0.966214L80.6392 8.30505L81.3985 9.87807H81.4067L82.0473 11.2186L83.2923 13.8225Z" fill="#838696"/>
</svg>
